<svg viewBox="0 0 470 130" xmlns="http://www.w3.org/2000/svg" role="img" aria-label="Marcel IA — montgolfière (Annonay, Montgolfier 1783)">
  <defs><style>@import url('https://fonts.googleapis.com/css2?family=Playfair+Display:wght@600&family=Outfit:wght@500;700&display=swap');</style></defs>
  <!-- Montgolfière -->
  <g transform="translate(22,22)">
    <path d="M33 4 C 46 4 54 15 54 28 C 54 37 49 44 40 49 L 26 49 C 17 44 12 37 12 28 C 12 15 20 4 33 4 Z" fill="#1B2A4A"/>
    <path d="M33 4 C 23 18 23 37 27 49" fill="none" stroke="#C9A96E" stroke-width="1.5"/>
    <path d="M33 4 C 43 18 43 37 39 49" fill="none" stroke="#C9A96E" stroke-width="1.5"/>
    <line x1="33" y1="4" x2="33" y2="49" stroke="#C9A96E" stroke-width="1.5"/>
    <line x1="28" y1="49" x2="29.5" y2="55" stroke="#1B2A4A" stroke-width="1.4"/>
    <line x1="38" y1="49" x2="36.5" y2="55" stroke="#1B2A4A" stroke-width="1.4"/>
    <rect x="28" y="55" width="10" height="7" rx="1.5" fill="#C9A96E"/>
  </g>
  <text x="108" y="66" font-family="'Playfair Display',Georgia,serif" font-size="46" font-weight="600" fill="#1B2A4A">Marcel</text>
  <rect x="296" y="33" width="55" height="35" rx="9" fill="#C9A96E"/>
  <text x="323.5" y="58" text-anchor="middle" font-family="'Outfit',system-ui,sans-serif" font-size="20" font-weight="700" fill="#1B2A4A">IA</text>
  <text x="110" y="94" font-family="'Outfit',system-ui,sans-serif" font-size="12" font-weight="500" letter-spacing="1" fill="#6B5D52">Le Family Office des dirigeant(e)s</text>
</svg>
