<svg viewBox="0 0 200 200" xmlns="http://www.w3.org/2000/svg" role="img" aria-label="Marcel IA — emblème montgolfière tricolore">
  <defs>
    <style>@import url('https://fonts.googleapis.com/css2?family=Outfit:wght@600&display=swap');</style>
    <clipPath id="eEnvFr"><path d="M33 5 C 48 5 56 17 56 30 C 56 39 51 46 42 51 L 24 51 C 15 46 10 39 10 30 C 10 17 18 5 33 5 Z"/></clipPath>
  </defs>
  <rect x="4" y="4" width="192" height="192" rx="44" fill="#FAF8F4"/>
  <rect x="13" y="13" width="174" height="174" rx="36" fill="none" stroke="#C9A96E" stroke-width="1.2" stroke-opacity="0.6"/>
  <g transform="translate(40,22) scale(1.85)">
    <g clip-path="url(#eEnvFr)">
      <rect x="10" y="3" width="15.3" height="50" fill="#1B2A4A"/>
      <rect x="25.3" y="3" width="15.4" height="50" fill="#FAF8F4"/>
      <rect x="40.7" y="3" width="15.3" height="50" fill="#C0414C"/>
    </g>
    <path d="M33 5 C 48 5 56 17 56 30 C 56 39 51 46 42 51 L 24 51 C 15 46 10 39 10 30 C 10 17 18 5 33 5 Z" fill="none" stroke="#1B2A4A" stroke-width="1" stroke-opacity="0.25"/>
    <line x1="25.3" y1="6" x2="25.3" y2="51" stroke="#1B2A4A" stroke-width="0.6" stroke-opacity="0.2"/>
    <line x1="40.7" y1="6" x2="40.7" y2="51" stroke="#1B2A4A" stroke-width="0.6" stroke-opacity="0.2"/>
    <line x1="28" y1="51" x2="30" y2="57" stroke="#1B2A4A" stroke-width="1"/>
    <line x1="38" y1="51" x2="36" y2="57" stroke="#1B2A4A" stroke-width="1"/>
    <path d="M28 57 L 38 57 L 36.4 64 L 29.6 64 Z" fill="#C9A96E"/>
  </g>
  <text x="100" y="176" text-anchor="middle" font-family="'Outfit',system-ui,sans-serif" font-size="14" font-weight="600" letter-spacing="3.5" fill="#8B6F3F">MARCEL IA</text>
</svg>
