<svg viewBox="0 0 470 130" xmlns="http://www.w3.org/2000/svg" role="img" aria-label="Marcel IA — montgolfière tricolore (Annonay, IA française souveraine)">
  <defs>
    <style>@import url('https://fonts.googleapis.com/css2?family=Playfair+Display:wght@600&family=Outfit:wght@500;700&display=swap');</style>
    <clipPath id="mEnvFr"><path d="M33 5 C 48 5 56 17 56 30 C 56 39 51 46 42 51 L 24 51 C 15 46 10 39 10 30 C 10 17 18 5 33 5 Z"/></clipPath>
  </defs>
  <g transform="translate(20,20)">
    <g clip-path="url(#mEnvFr)">
      <rect x="10" y="3" width="15.3" height="50" fill="#1B2A4A"/>
      <rect x="25.3" y="3" width="15.4" height="50" fill="#FAF8F4"/>
      <rect x="40.7" y="3" width="15.3" height="50" fill="#C0414C"/>
    </g>
    <path d="M33 5 C 48 5 56 17 56 30 C 56 39 51 46 42 51 L 24 51 C 15 46 10 39 10 30 C 10 17 18 5 33 5 Z" fill="none" stroke="#1B2A4A" stroke-width="1" stroke-opacity="0.22"/>
    <line x1="25.3" y1="6" x2="25.3" y2="51" stroke="#1B2A4A" stroke-width="0.6" stroke-opacity="0.18"/>
    <line x1="40.7" y1="6" x2="40.7" y2="51" stroke="#1B2A4A" stroke-width="0.6" stroke-opacity="0.18"/>
    <line x1="28" y1="51" x2="30" y2="57" stroke="#1B2A4A" stroke-width="1"/>
    <line x1="38" y1="51" x2="36" y2="57" stroke="#1B2A4A" stroke-width="1"/>
    <path d="M28 57 L 38 57 L 36.4 64 L 29.6 64 Z" fill="#C9A96E"/>
  </g>
  <text x="108" y="66" font-family="'Playfair Display',Georgia,serif" font-size="46" font-weight="600" fill="#1B2A4A">Marcel</text>
  <rect x="296" y="33" width="55" height="35" rx="9" fill="#C9A96E"/>
  <text x="323.5" y="58" text-anchor="middle" font-family="'Outfit',system-ui,sans-serif" font-size="20" font-weight="700" fill="#1B2A4A">IA</text>
  <text x="110" y="94" font-family="'Outfit',system-ui,sans-serif" font-size="12" font-weight="500" letter-spacing="1" fill="#6B5D52">Le Family Office des dirigeant(e)s</text>
</svg>
